<?xml version="1.0" encoding="UTF-8" standalone="no"?>
<!-- Created with Inkscape (http://www.inkscape.org/) -->

<svg
   xmlns:dc="http://purl.org/dc/elements/1.1/"
   xmlns:cc="http://creativecommons.org/ns#"
   xmlns:rdf="http://www.w3.org/1999/02/22-rdf-syntax-ns#"
   xmlns:svg="http://www.w3.org/2000/svg"
   xmlns="http://www.w3.org/2000/svg"
   xmlns:sodipodi="http://sodipodi.sourceforge.net/DTD/sodipodi-0.dtd"
   xmlns:inkscape="http://www.inkscape.org/namespaces/inkscape"
   width="27.609171mm"
   height="27.609165mm"
   viewBox="0 0 27.609171 27.609165"
   version="1.1"
   id="svg2013"
   inkscape:version="0.92.3 (2405546, 2018-03-11)"
   sodipodi:docname="x-logo-cut-dark.svg">
  <metadata
     id="metadata7">
    <rdf:RDF>
      <cc:Work
         rdf:about="">
        <dc:format>image/svg+xml</dc:format>
        <dc:type
           rdf:resource="http://purl.org/dc/dcmitype/StillImage" />
      </cc:Work>
    </rdf:RDF>
  </metadata>
  <sodipodi:namedview
     id="namedview2015"
     pagecolor="#ffffff"
     bordercolor="#666666"
     borderopacity="1.0"
     inkscape:pageshadow="2"
     inkscape:pageopacity="0.0"
     inkscape:pagecheckerboard="false"
     inkscape:document-units="mm"
     showgrid="false"
     fit-margin-top="0"
     fit-margin-left="0"
     fit-margin-right="0"
     fit-margin-bottom="0"
     inkscape:zoom="8.1456948"
     inkscape:cx="28.481302"
     inkscape:cy="49.351223"
     inkscape:window-width="1920"
     inkscape:window-height="1052"
     inkscape:window-x="1920"
     inkscape:window-y="0"
     inkscape:window-maximized="1"
     inkscape:current-layer="layer1" />
  <defs
     id="defs2010" />
  <g
     inkscape:label="Ebene 1"
     inkscape:groupmode="layer"
     id="layer1"
     transform="translate(-38.769951,-89.960944)">
    <path
       id="path41169"
       style="fill:#141414;fill-opacity:1;stroke-width:0.15152501;stroke-linecap:round;stroke-linejoin:bevel"
       d="m 52.574278,89.960941 a 13.804501,13.804501 0 0 0 -11.198284,5.747453 c 6.672483,-0.01298 9.193917,-0.02997 17.599961,-0.02997 l -4.857068,7.400056 3.629236,5.87665 h -2.769857 l -2.318723,-3.88451 -3.42253,5.0245 15.615069,-0.0372 a 13.804501,13.804501 0 0 0 1.527039,-6.29264 13.804501,13.804501 0 0 0 -13.804843,-13.804321 z m -1.877406,7.429004 c -3.684268,0.0036 -5.706848,0.03459 -10.374043,0.03411 a 13.804501,13.804501 0 0 0 -1.552878,6.341205 13.804501,13.804501 0 0 0 13.804327,13.80485 13.804501,13.804501 0 0 0 11.225156,-5.78364 c -6.696306,0.0346 -9.235977,0.0662 -17.651638,0.0662 l 5.67614,-8.07031 -3.20549,-5.259107 h 2.76159 l 1.882572,3.232347 2.754871,-4.353723 c -2.20198,-0.01053 -3.889686,-0.0133 -5.320607,-0.01188 z"
       inkscape:connector-curvature="0" />
  </g>
</svg>
